<svg width="53" height="53" viewBox="0 0 53 53" fill="none" xmlns="http://www.w3.org/2000/svg">
<mask id="path-1-inside-1_109484_116" fill="white">
<path d="M26 27H13V40H26V53H0V14H26V27Z"/>
</mask>
<path d="M26 27V28H27V27H26ZM13 27V26H12V27H13ZM13 40H12V41H13V40ZM26 40H27V39H26V40ZM26 53V54H27V53H26ZM0 53H-1V54H0V53ZM0 14V13H-1V14H0ZM26 14H27V13H26V14ZM26 27V26H13V27V28H26V27ZM13 27H12V40H13H14V27H13ZM13 40V41H26V40V39H13V40ZM26 40H25V53H26H27V40H26ZM26 53V52H0V53V54H26V53ZM0 53H1V14H0H-1V53H0ZM0 14V15H26V14V13H0V14ZM26 14H25V27H26H27V14H26Z" fill="#C778DD" mask="url(#path-1-inside-1_109484_116)"/>
<mask id="path-3-outside-2_109484_116" maskUnits="userSpaceOnUse" x="25" y="0" width="28" height="41" fill="black">
<rect fill="white" x="25" width="28" height="41"/>
<path d="M52 40H26V27H39V14H26V1H52V40Z"/>
</mask>
<path d="M52 40V41H53V40H52ZM26 40H25V41H26V40ZM26 27V26H25V27H26ZM39 27V28H40V27H39ZM39 14H40V13H39V14ZM26 14H25V15H26V14ZM26 1V0H25V1H26ZM52 1H53V0H52V1ZM52 40V39H26V40V41H52V40ZM26 40H27V27H26H25V40H26ZM26 27V28H39V27V26H26V27ZM39 27H40V14H39H38V27H39ZM39 14V13H26V14V15H39V14ZM26 14H27V1H26H25V14H26ZM26 1V2H52V1V0H26V1ZM52 1H51V40H52H53V1H52Z" fill="#C778DD" mask="url(#path-3-outside-2_109484_116)"/>
</svg>
