<svg xmlns="http://www.w3.org/2000/svg" width="32" height="32" viewBox="0 0 32 32">
    <g id="logo">
        <g clip-path="url(#clip0_2_5657)">
            <path d="M12.5581 0V3.83066C11.5028 3.83066 10.6796 3.98157 10.0882 4.28338C9.49679 4.57357 9.24169 5.15977 9.32287 6.04199L9.86206 11.1785C10.0012 12.4786 9.85626 13.5292 9.42722 14.3301C9.00978 15.131 8.36623 15.7464 7.49655 16.1758C6.63848 16.5938 5.62386 16.8897 4.45271 17.0638C5.69343 17.2495 6.74284 17.5514 7.60092 17.9693C8.45899 18.3871 9.08516 18.9907 9.47941 19.7801C9.87366 20.5695 10.0012 21.6258 9.86206 22.9492L9.32287 28.0857C9.24169 28.9679 9.49679 29.5541 10.0882 29.8443C10.6796 30.146 11.5028 30.297 12.5581 30.297V34.1277C9.35765 34.1277 7.1081 33.6401 5.80939 32.6651C4.52229 31.7016 4.00048 30.0475 4.24398 27.7026L4.76579 22.7227C4.85856 21.8406 4.70782 21.1499 4.31357 20.6507C3.93091 20.1516 3.36272 19.8033 2.60901 19.6059C1.85529 19.3971 0.985626 19.2926 0 19.2926V14.8351C0.97403 14.8351 1.8379 14.7364 2.59162 14.5391C3.34533 14.3301 3.91932 13.9761 4.31357 13.477C4.70782 12.9778 4.85856 12.2871 4.76579 11.4049L4.24398 6.45987C3.98889 4.06861 4.51068 2.39706 5.80939 1.4452C7.1081 0.481734 9.35765 0 12.5581 0Z" fill="url(#paint0_linear_2_5657)" />
            <path d="M27.633 4.50977C30.5087 4.50977 32.6771 5.62414 34.1381 7.85288C35.6108 10.07 36.3471 13.1636 36.3471 17.1335C36.3471 21.115 35.6108 24.2318 34.1381 26.4838C32.6771 28.7242 30.5087 29.8443 27.633 29.8443C24.7342 29.8443 22.5541 28.7242 21.0931 26.4838C19.6436 24.2318 18.9189 21.115 18.9189 17.1335C18.9189 13.1636 19.6436 10.07 21.0931 7.85288C22.5541 5.62414 24.7342 4.50977 27.633 4.50977ZM27.633 8.49713C26.4039 8.49713 25.5052 9.15879 24.937 10.4821C24.3689 11.7938 24.0847 14.0109 24.0847 17.1335C24.0847 18.1551 24.1022 19.0663 24.1369 19.8672C24.1718 20.6566 24.224 21.3589 24.2935 21.9741L30.1724 9.66374C29.8942 9.22264 29.5463 8.92083 29.1289 8.75831C28.7231 8.5842 28.2244 8.49713 27.633 8.49713ZM31.1465 17.1335C31.1465 15.7986 31.1175 14.6726 31.0595 13.7555L25.511 25.2302C25.7662 25.4739 26.0676 25.6422 26.4154 25.7351C26.775 25.8279 27.1808 25.8744 27.633 25.8744C28.4564 25.8744 29.1231 25.5958 29.6333 25.0387C30.1551 24.4815 30.5377 23.5644 30.7812 22.2875C31.0248 20.999 31.1465 19.281 31.1465 17.1335Z" fill="url(#paint1_linear_2_5657)" />
            <path d="M48.5002 4.50977C51.3759 4.50977 53.5443 5.62414 55.0053 7.85288C56.478 10.07 57.2142 13.1636 57.2142 17.1335C57.2142 21.115 56.478 24.2318 55.0053 26.4838C53.5443 28.7242 51.3759 29.8443 48.5002 29.8443C45.6012 29.8443 43.4213 28.7242 41.9603 26.4838C40.5108 24.2318 39.7861 21.115 39.7861 17.1335C39.7861 13.1636 40.5108 10.07 41.9603 7.85288C43.4213 5.62414 45.6012 4.50977 48.5002 4.50977ZM48.5002 8.49713C47.2711 8.49713 46.3724 9.15879 45.8042 10.4821C45.2361 11.7938 44.9519 14.0109 44.9519 17.1335C44.9519 18.1551 44.9694 19.0663 45.0041 19.8672C45.0389 20.6566 45.0911 21.3589 45.1607 21.9741L51.0396 9.66374C50.7613 9.22264 50.4134 8.92083 49.9961 8.75831C49.5901 8.5842 49.0915 8.49713 48.5002 8.49713ZM52.0137 17.1335C52.0137 15.7986 51.9847 14.6726 51.9267 13.7555L46.3782 25.2302C46.6332 25.4739 46.9348 25.6422 47.2826 25.7351C47.6422 25.8279 48.048 25.8744 48.5002 25.8744C49.3234 25.8744 49.9902 25.5958 50.5005 25.0387C51.0222 24.4815 51.4049 23.5644 51.6484 22.2875C51.8919 20.999 52.0137 19.281 52.0137 17.1335Z" fill="url(#paint2_linear_2_5657)" />
            <path d="M68.1146 29.8095L62.8966 28.1902L71.889 9.26321H61.2964V5.11914H77.4549V8.84532L68.1146 29.8095Z" fill="url(#paint3_linear_2_5657)" />
            <path d="M84.4419 0C87.6423 0 89.8861 0.481734 91.1732 1.4452C92.4719 2.40867 92.9995 4.06862 92.756 6.42505L92.2342 11.4049C92.1414 12.2871 92.2921 12.9778 92.6864 13.477C93.0807 13.9761 93.6488 14.3301 94.3909 14.5391C95.1447 14.7364 96.0144 14.8351 97 14.8351V19.2926C96.0259 19.2926 95.1621 19.3971 94.4083 19.6059C93.6547 19.8033 93.0807 20.1516 92.6864 20.6507C92.2921 21.1499 92.1414 21.8406 92.2342 22.7227L92.756 27.6678C93.0227 30.0475 92.5009 31.719 91.1905 32.6824C89.8918 33.646 87.6423 34.1277 84.4419 34.1277V30.297C85.5088 30.297 86.3378 30.146 86.9291 29.8443C87.5206 29.5541 87.7699 28.9679 87.6772 28.0857L87.1379 22.9492C86.9988 21.6374 87.1379 20.5868 87.5553 19.7976C87.9844 18.9965 88.6338 18.3871 89.5035 17.9693C90.373 17.5397 91.3935 17.238 92.5646 17.0638C91.3239 16.8781 90.2688 16.5763 89.3991 16.1584C88.5409 15.7405 87.9149 15.1369 87.5206 14.3476C87.1263 13.5466 86.9988 12.4903 87.1379 11.1785L87.6772 6.04199C87.7699 5.15977 87.5147 4.57357 86.9118 4.28338C86.3204 3.98157 85.4971 3.83066 84.4419 3.83066V0Z" fill="url(#paint4_linear_2_5657)" />
            <path d="M12.2746 42.1621C13.2417 42.1621 14.0209 42.4024 14.6122 42.883C15.2037 43.3635 15.635 44.0426 15.9064 44.9202C16.1846 45.7977 16.3238 46.839 16.3238 48.0439C16.3238 49.1862 16.1568 50.2065 15.8229 51.1049C15.4889 51.9964 15.0054 52.6999 14.3723 53.2153C13.7391 53.7238 12.9703 53.978 12.0659 53.978C10.9875 53.978 10.1108 53.5914 9.43597 52.8182V57.9061L6.13818 58.2509V42.5278H9.06028L9.20639 43.771C9.65862 43.1929 10.1526 42.782 10.6883 42.5382C11.224 42.2875 11.7528 42.1621 12.2746 42.1621ZM11.2519 44.5964C10.8692 44.5964 10.5318 44.7113 10.2396 44.9411C9.94735 45.1709 9.67948 45.4843 9.43597 45.8813V50.5617C9.66557 50.903 9.9056 51.1537 10.1561 51.3139C10.4135 51.474 10.7161 51.5542 11.064 51.5542C11.6484 51.5542 12.1041 51.2895 12.4312 50.7601C12.7582 50.2238 12.9216 49.3325 12.9216 48.0857C12.9216 47.1663 12.8555 46.456 12.7233 45.9545C12.5912 45.4461 12.3999 45.0943 12.1493 44.8993C11.8989 44.6973 11.5997 44.5964 11.2519 44.5964Z" fill="url(#paint5_linear_2_5657)" />
            <path d="M27.9881 50.4259C27.9881 50.8437 28.0437 51.1467 28.1551 51.3348C28.2733 51.5228 28.4612 51.6657 28.7186 51.7631L28.0403 53.9362C27.3862 53.8735 26.8332 53.7307 26.3809 53.5078C25.9356 53.278 25.5843 52.9332 25.3269 52.4736C24.9025 52.982 24.3598 53.3615 23.6989 53.6123C23.0379 53.856 22.3631 53.978 21.6743 53.978C20.5332 53.978 19.6218 53.6541 18.94 53.0063C18.2651 52.3517 17.9277 51.5124 17.9277 50.4886C17.9277 49.2837 18.3974 48.3538 19.3366 47.6991C20.2827 47.0445 21.6116 46.7172 23.3231 46.7172H24.8155V46.2992C24.8155 45.164 24.085 44.5964 22.6239 44.5964C22.2692 44.5964 21.8134 44.6486 21.2568 44.7531C20.7002 44.8505 20.1436 44.9932 19.587 45.1813L18.8252 42.9875C19.5419 42.7159 20.2863 42.5103 21.0585 42.3711C21.8377 42.2318 22.5335 42.1621 23.1457 42.1621C24.7946 42.1621 26.0121 42.4999 26.7983 43.1754C27.5915 43.8441 27.9881 44.8122 27.9881 46.0798V50.4259ZM22.8117 51.6169C23.1666 51.6169 23.5389 51.5124 23.9285 51.3034C24.3181 51.0876 24.6137 50.7846 24.8155 50.3946V48.5977H24.0015C23.0831 48.5977 22.4083 48.7404 21.9769 49.0259C21.5456 49.3045 21.3299 49.7155 21.3299 50.2588C21.3299 50.6836 21.4585 51.0179 21.716 51.2616C21.9804 51.4985 22.3457 51.6169 22.8117 51.6169Z" fill="url(#paint6_linear_2_5657)" />
            <path d="M41.6355 42.5276L37.9412 53.6225H34.059L30.3228 42.5276H33.8815L36.0418 51.0943L38.2959 42.5276H41.6355Z" fill="url(#paint7_linear_2_5657)" />
            <path d="M53.0286 50.4259C53.0286 50.8437 53.0843 51.1467 53.1956 51.3348C53.3139 51.5228 53.5017 51.6657 53.7591 51.7631L53.0808 53.9362C52.4267 53.8735 51.8737 53.7307 51.4215 53.5078C50.9762 53.278 50.6249 52.9332 50.3674 52.4736C49.9431 52.982 49.4003 53.3615 48.7394 53.6123C48.0784 53.856 47.4036 53.978 46.7148 53.978C45.5738 53.978 44.6623 53.6541 43.9805 53.0063C43.3057 52.3517 42.9683 51.5124 42.9683 50.4886C42.9683 49.2837 43.4379 48.3538 44.3771 47.6991C45.3233 47.0445 46.6522 46.7172 48.3637 46.7172H49.856V46.2992C49.856 45.164 49.1255 44.5964 47.6645 44.5964C47.3097 44.5964 46.8539 44.6486 46.2973 44.7531C45.7407 44.8505 45.1842 44.9932 44.6276 45.1813L43.8658 42.9875C44.5824 42.7159 45.3268 42.5103 46.099 42.3711C46.8783 42.2318 47.574 42.1621 48.1862 42.1621C49.8351 42.1621 51.0527 42.4999 51.8388 43.1754C52.632 43.8441 53.0286 44.8122 53.0286 46.0798V50.4259ZM47.8523 51.6169C48.2071 51.6169 48.5794 51.5124 48.969 51.3034C49.3586 51.0876 49.6543 50.7846 49.856 50.3946V48.5977H49.0421C48.1236 48.5977 47.4488 48.7404 47.0175 49.0259C46.5861 49.3045 46.3704 49.7155 46.3704 50.2588C46.3704 50.6836 46.4992 51.0179 46.7565 51.2616C47.0209 51.4985 47.3862 51.6169 47.8523 51.6169Z" fill="url(#paint8_linear_2_5657)" />
            <path d="M56.2188 53.6227V42.5278H59.0992L59.3288 43.8128C59.8227 43.2556 60.3444 42.8412 60.8942 42.5696C61.4437 42.2979 62.0699 42.1621 62.7726 42.1621C63.7188 42.1621 64.4633 42.4511 65.006 43.0293C65.5486 43.6074 65.8199 44.4222 65.8199 45.4739V53.6227H62.5222V46.4246C62.5222 45.7421 62.4457 45.2685 62.2925 45.0037C62.1464 44.7322 61.8682 44.5964 61.4576 44.5964C61.1098 44.5964 60.7759 44.7077 60.4558 44.9307C60.1427 45.1535 59.8296 45.4634 59.5166 45.8604V53.6227H56.2188Z" fill="url(#paint9_linear_2_5657)" />
            <path d="M76.9314 42.1621C77.7174 42.1621 78.2985 42.4199 78.6742 42.9353C79.0568 43.4436 79.2481 44.269 79.2481 45.4112V53.6227H76.42V45.7873C76.42 45.3973 76.3817 45.1222 76.3052 44.962C76.2356 44.8017 76.0894 44.7217 75.8668 44.7217C75.693 44.7217 75.512 44.774 75.3241 44.8784C75.1433 44.9759 74.9415 45.164 74.7189 45.4425V53.6227H72.4021V45.7873C72.4021 45.3973 72.3638 45.1222 72.2873 44.962C72.2177 44.8017 72.0716 44.7217 71.8489 44.7217C71.6751 44.7217 71.4941 44.774 71.3062 44.8784C71.1254 44.9759 70.9236 45.164 70.701 45.4425V53.6227H67.8311V42.5278H70.2522L70.4714 43.6038C70.8193 43.1302 71.1707 42.7715 71.5254 42.5278C71.8803 42.284 72.3012 42.1621 72.7882 42.1621C73.2056 42.1621 73.5604 42.27 73.8527 42.486C74.1519 42.695 74.3641 43.0257 74.4893 43.4784C74.8233 43.0884 75.192 42.7715 75.5955 42.5278C75.9991 42.284 76.4443 42.1621 76.9314 42.1621Z" fill="url(#paint10_linear_2_5657)" />
            <path d="M91.1004 40.7517L91.8728 43.1754C91.4832 43.3287 91.0274 43.4401 90.5057 43.5097C89.9838 43.5794 89.3751 43.6142 88.6794 43.6142C89.3751 43.9137 89.9038 44.2863 90.2656 44.7321C90.6344 45.1708 90.8187 45.7489 90.8187 46.4664C90.8187 47.1837 90.6274 47.8245 90.2448 48.3886C89.862 48.9458 89.3195 49.3846 88.6168 49.705C87.9141 50.0254 87.0826 50.1856 86.1225 50.1856C85.6633 50.1856 85.2354 50.1438 84.8389 50.0602C84.7205 50.1229 84.6302 50.2133 84.5676 50.3318C84.5049 50.4502 84.4736 50.5721 84.4736 50.6975C84.4736 50.8716 84.5431 51.0283 84.6824 51.1675C84.8285 51.3069 85.1659 51.3765 85.6946 51.3765H87.5105C88.3732 51.3765 89.1176 51.5158 89.7438 51.7944C90.3769 52.0729 90.8674 52.4526 91.2153 52.9331C91.5631 53.4137 91.7371 53.964 91.7371 54.5839C91.7371 55.7191 91.2397 56.6141 90.2448 57.2688C89.2498 57.9234 87.7714 58.2509 85.8094 58.2509C84.3901 58.2509 83.2908 58.1046 82.5117 57.812C81.7393 57.5265 81.2002 57.1156 80.8941 56.5792C80.5949 56.0499 80.4453 55.4196 80.4453 54.6882H83.3673C83.3673 55.0087 83.43 55.2699 83.5552 55.4718C83.6874 55.6808 83.9344 55.8341 84.2962 55.9315C84.6649 56.029 85.1972 56.0778 85.8929 56.0778C86.5956 56.0778 87.1313 56.022 87.5 55.9107C87.8688 55.7992 88.1192 55.646 88.2515 55.4509C88.3906 55.2629 88.4602 55.0505 88.4602 54.8136C88.4602 54.4863 88.3314 54.2217 88.0741 54.0197C87.8166 53.8177 87.4097 53.7167 86.853 53.7167H85.0893C83.8926 53.7167 83.0229 53.4973 82.4803 53.0585C81.9376 52.6128 81.6663 52.0938 81.6663 51.5019C81.6663 51.091 81.7741 50.701 81.9898 50.3318C82.2124 49.9627 82.5221 49.6527 82.9187 49.402C82.209 49.0258 81.701 48.5836 81.3949 48.0752C81.0888 47.5598 80.9358 46.9434 80.9358 46.226C80.9358 45.3902 81.148 44.6729 81.5724 44.0739C81.9968 43.4679 82.5811 43.0013 83.3256 42.674C84.077 42.3467 84.9329 42.1829 85.8929 42.1829C86.7208 42.1968 87.441 42.1412 88.0532 42.0158C88.6654 41.8834 89.2151 41.7059 89.7021 41.4829C90.189 41.2531 90.6552 41.0093 91.1004 40.7517ZM85.9764 44.3246C85.4546 44.3246 85.0406 44.4918 84.7345 44.8262C84.4283 45.1535 84.2753 45.6062 84.2753 46.1843C84.2753 46.7971 84.4319 47.2673 84.745 47.5946C85.058 47.9219 85.4686 48.0857 85.9764 48.0857C87.1034 48.0857 87.667 47.4379 87.667 46.1425C87.667 44.9306 87.1034 44.3246 85.9764 44.3246Z" fill="url(#paint11_linear_2_5657)" />
        </g>
        <defs>
            <linearGradient id="paint0_linear_2_5657" x1="-2.05005" y1="36.7549" x2="99.9719" y2="0.679714" gradientUnits="userSpaceOnUse">
            <stop stop-color="#00C0FD" />
            <stop offset="1" stop-color="#E70FAA" />
            </linearGradient>
            <linearGradient id="paint1_linear_2_5657" x1="-2.05004" y1="36.755" x2="99.972" y2="0.679755" gradientUnits="userSpaceOnUse">
            <stop stop-color="#00C0FD" />
            <stop offset="1" stop-color="#E70FAA" />
            </linearGradient>
            <linearGradient id="paint2_linear_2_5657" x1="-2.04988" y1="36.755" x2="99.9721" y2="0.679757" gradientUnits="userSpaceOnUse">
            <stop stop-color="#00C0FD" />
            <stop offset="1" stop-color="#E70FAA" />
            </linearGradient>
            <linearGradient id="paint3_linear_2_5657" x1="-2.05005" y1="36.7549" x2="99.9719" y2="0.679708" gradientUnits="userSpaceOnUse">
            <stop stop-color="#00C0FD" />
            <stop offset="1" stop-color="#E70FAA" />
            </linearGradient>
            <linearGradient id="paint4_linear_2_5657" x1="-2.05008" y1="36.7549" x2="99.9719" y2="0.679722" gradientUnits="userSpaceOnUse">
            <stop stop-color="#00C0FD" />
            <stop offset="1" stop-color="#E70FAA" />
            </linearGradient>
            <linearGradient id="paint5_linear_2_5657" x1="-0.244359" y1="59.3455" x2="93.6381" y2="39.507" gradientUnits="userSpaceOnUse">
            <stop stop-color="#13B0F5" />
            <stop offset="1" stop-color="#CA24B4" />
            </linearGradient>
            <linearGradient id="paint6_linear_2_5657" x1="-0.24451" y1="59.3455" x2="93.638" y2="39.507" gradientUnits="userSpaceOnUse">
            <stop stop-color="#13B0F5" />
            <stop offset="1" stop-color="#CA24B4" />
            </linearGradient>
            <linearGradient id="paint7_linear_2_5657" x1="-0.24437" y1="59.3453" x2="93.6381" y2="39.5068" gradientUnits="userSpaceOnUse">
            <stop stop-color="#13B0F5" />
            <stop offset="1" stop-color="#CA24B4" />
            </linearGradient>
            <linearGradient id="paint8_linear_2_5657" x1="-0.244339" y1="59.3455" x2="93.6381" y2="39.507" gradientUnits="userSpaceOnUse">
            <stop stop-color="#13B0F5" />
            <stop offset="1" stop-color="#CA24B4" />
            </linearGradient>
            <linearGradient id="paint9_linear_2_5657" x1="-0.244556" y1="59.3455" x2="93.6379" y2="39.507" gradientUnits="userSpaceOnUse">
            <stop stop-color="#13B0F5" />
            <stop offset="1" stop-color="#CA24B4" />
            </linearGradient>
            <linearGradient id="paint10_linear_2_5657" x1="-0.244473" y1="59.3455" x2="93.638" y2="39.507" gradientUnits="userSpaceOnUse">
            <stop stop-color="#13B0F5" />
            <stop offset="1" stop-color="#CA24B4" />
            </linearGradient>
            <linearGradient id="paint11_linear_2_5657" x1="-0.244413" y1="59.3454" x2="93.6381" y2="39.5069" gradientUnits="userSpaceOnUse">
            <stop stop-color="#13B0F5" />
            <stop offset="1" stop-color="#CA24B4" />
            </linearGradient>
            <clipPath id="clip0_2_5657">
            <rect width="97" height="59" fill="white" />
            </clipPath>
        </defs>
    </g>
    <g id="verticalLine">
        <path fill-rule="evenodd" clip-rule="evenodd" d="M-8.34888e-06 191L0 -4.37114e-08L1 0L0.999992 191L-8.34888e-06 191Z" fill="#ABB2BF" />
    </g>
    <g id='wall'>
        <g opacity="0.5">
            <path d="M714.509 231.002L597.003 299.867" stroke="#B2B2B2" />
            <path d="M645.644 113.497L528.138 182.361" stroke="url(#paint0_linear_15_2063)" />
            <path d="M597.002 299.867L528.138 182.361" stroke="#B2B2B2" />
            <path d="M714.509 231.002L645.644 113.496" stroke="#B2B2B2" />
            <path d="M597.002 299.867L440.328 391.686" stroke="#B2B2B2" />
            <path d="M528.138 182.361L371.464 274.18" stroke="url(#paint1_linear_15_2063)" />
            <path d="M440.328 391.686L371.464 274.18" stroke="#B2B2B2" />
            <path d="M597.002 299.867L528.138 182.361" stroke="url(#paint2_linear_15_2063)" />
            <path d="M97.2832 434.864L214.789 366" stroke="#B2B2B2" />
            <path d="M166.147 552.37L283.653 483.506" stroke="#B2B2B2" />
            <path d="M214.789 366L283.653 483.506" stroke="#B2B2B2" />
            <path d="M97.2832 434.864L166.148 552.37" stroke="#B2B2B2" />
            <path d="M214.789 366L371.464 274.181" stroke="url(#paint3_linear_15_2063)" />
            <path d="M283.654 483.505L440.328 391.686" stroke="#B2B2B2" />
            <path d="M214.789 366L283.653 483.506" stroke="#B2B2B2" />
            <path d="M440.328 391.686L557.834 322.822" stroke="#B2B2B2" />
            <path d="M509.192 509.192L626.698 440.328" stroke="#B2B2B2" />
            <path d="M557.834 322.822L626.698 440.328" stroke="#B2B2B2" />
            <path d="M557.833 322.822L714.508 231.003" stroke="#B2B2B2" />
            <path d="M557.833 322.822L626.698 440.328" stroke="#B2B2B2" />
            <path d="M509.192 509.192L391.686 578.056" stroke="#B2B2B2" />
            <path d="M440.328 391.686L322.822 460.55" stroke="#B2B2B2" />
            <path d="M391.687 578.056L322.822 460.551" stroke="#B2B2B2" />
            <path d="M391.687 578.056L235.012 669.876" stroke="#B2B2B2" />
            <path d="M322.822 460.55L166.148 552.37" stroke="#B2B2B2" />
            <path d="M235.012 669.876L166.148 552.37" stroke="url(#paint4_linear_15_2063)" />
            <path d="M391.687 578.056L322.822 460.551" stroke="#B2B2B2" />
            <path d="M734.729 534.879L578.054 626.698" stroke="#B2B2B2" />
            <path d="M665.864 417.373L509.19 509.192" stroke="#B2B2B2" />
            <path d="M578.054 626.698L509.19 509.192" stroke="#B2B2B2" />
            <path d="M235.009 669.875L352.515 601.011" stroke="#B2B2B2" />
            <path d="M303.874 787.381L421.38 718.517" stroke="#B2B2B2" />
            <path d="M352.515 601.011L421.38 718.517" stroke="#B2B2B2" />
            <path d="M235.009 669.875L303.873 787.381" stroke="#B2B2B2" />
            <path d="M352.516 601.011L509.19 509.192" stroke="url(#paint5_linear_15_2063)" />
            <path d="M421.38 718.517L578.054 626.697" stroke="#B2B2B2" />
            <path d="M352.516 601.011L421.38 718.517" stroke="#B2B2B2" />
            <path d="M578.054 626.698L695.56 557.833" stroke="#B2B2B2" />
            <path d="M646.918 744.203L529.412 813.068" stroke="#B2B2B2" />
            <path d="M578.054 626.698L460.548 695.562" stroke="#B2B2B2" />
            <path d="M529.413 813.068L460.548 695.562" stroke="#B2B2B2" />
            <path d="M529.413 813.068L372.738 904.887" stroke="#B2B2B2" />
            <path d="M460.548 695.562L303.874 787.381" stroke="#B2B2B2" />
            <path d="M372.738 904.887L303.874 787.381" stroke="#B2B2B2" />
            <path d="M529.413 813.068L460.548 695.562" stroke="url(#paint6_linear_15_2063)" />
        </g>
        <defs>
            <linearGradient id="paint0_linear_15_2063" x1="621.652" y1="107.235" x2="562.83" y2="160.097" gradientUnits="userSpaceOnUse">
            <stop stop-color="#13B0F5" />
            <stop offset="1" stop-color="#CA24B4" />
            </linearGradient>
            <linearGradient id="paint1_linear_15_2063" x1="527.722" y1="183.954" x2="427.61" y2="316.567" gradientUnits="userSpaceOnUse">
            <stop stop-color="#E70FAA" />
            <stop offset="1" stop-color="#13B0F5" />
            </linearGradient>
            <linearGradient id="paint2_linear_15_2063" x1="603.264" y1="275.875" x2="550.402" y2="217.053" gradientUnits="userSpaceOnUse">
            <stop stop-color="#13B0F5" />
            <stop offset="1" stop-color="#CA24B4" />
            </linearGradient>
            <linearGradient id="paint3_linear_15_2063" x1="246.778" y1="374.349" x2="325.208" y2="303.866" gradientUnits="userSpaceOnUse">
            <stop stop-color="#00C0FD" />
            <stop offset="0.421875" stop-color="#E70FAA" />
            <stop offset="1" stop-color="#00C0FD" />
            </linearGradient>
            <linearGradient id="paint4_linear_15_2063" x1="235.012" y1="669.876" x2="134.428" y2="594.956" gradientUnits="userSpaceOnUse">
            <stop stop-color="#8E34FF" />
            <stop offset="0.494792" stop-color="#CA24B4" />
            <stop offset="1" stop-color="#8E34FF" />
            </linearGradient>
            <linearGradient id="paint5_linear_15_2063" x1="392.585" y1="577.866" x2="465.958" y2="479.805" gradientUnits="userSpaceOnUse">
            <stop stop-color="#13B0F5" />
            <stop offset="0.75" stop-color="#CA24B4" />
            <stop offset="1" stop-color="#13B0F5" />
            </linearGradient>
            <linearGradient id="paint6_linear_15_2063" x1="529.413" y1="813.068" x2="428.828" y2="738.148" gradientUnits="userSpaceOnUse">
            <stop stop-color="#13B0F5" />
            <stop offset="0.0582928" stop-color="#CA24B4" />
            <stop offset="1" stop-color="#13B0F5" />
            </linearGradient>
        </defs>
    </g>
    <g id="frame">
        <g opacity="0.25">
            <rect x="585.236" y="470.58" width="443" height="443" transform="rotate(165 585.236 470.58)" stroke="url(#paint0_linear_19_1817)" stroke-opacity="0.5" />
            <rect x="616.53" y="395.03" width="443" height="443" transform="rotate(150 616.53 395.03)" stroke="url(#paint1_linear_19_1817)" stroke-opacity="0.5" />
            <rect x="627.204" y="313.956" width="443" height="443" transform="rotate(135 627.204 313.956)" stroke="url(#paint2_linear_19_1817)" stroke-opacity="0.5" />
            <rect x="616.53" y="232.881" width="443" height="443" transform="rotate(120 616.53 232.881)" stroke="url(#paint3_linear_19_1817)" stroke-opacity="0.5" />
            <rect x="585.237" y="157.331" width="443" height="443" transform="rotate(105 585.237 157.331)" stroke="url(#paint4_linear_19_1817)" stroke-opacity="0.5" />
        </g>
        <defs>
            <linearGradient id="paint0_linear_19_1817" x1="807.849" y1="470.933" x2="807.849" y2="905.433" gradientUnits="userSpaceOnUse">
            <stop stop-color="white" />
            <stop offset="1" stop-color="white" stop-opacity="0" />
            </linearGradient>
            <linearGradient id="paint1_linear_19_1817" x1="839.213" y1="395.213" x2="839.213" y2="829.713" gradientUnits="userSpaceOnUse">
            <stop stop-color="white" />
            <stop offset="1" stop-color="white" stop-opacity="0" />
            </linearGradient>
            <linearGradient id="paint2_linear_19_1817" x1="849.911" y1="313.956" x2="849.911" y2="748.456" gradientUnits="userSpaceOnUse">
            <stop stop-color="white" />
            <stop offset="1" stop-color="white" stop-opacity="0" />
            </linearGradient>
            <linearGradient id="paint3_linear_19_1817" x1="839.213" y1="232.698" x2="839.213" y2="667.198" gradientUnits="userSpaceOnUse">
            <stop stop-color="white" />
            <stop offset="1" stop-color="white" stop-opacity="0" />
            </linearGradient>
            <linearGradient id="paint4_linear_19_1817" x1="807.849" y1="156.978" x2="807.849" y2="591.478" gradientUnits="userSpaceOnUse">
            <stop stop-color="white" />
            <stop offset="1" stop-color="white" stop-opacity="0" />
            </linearGradient>
        </defs>
    </g>
    <g id='locate'>
        <path d="M16.5 28C16.5 28 26 19.1156 26 12.375C26 9.8886 24.9991 7.50403 23.2175 5.74587C21.4359 3.98772 19.0196 3 16.5 3C13.9804 3 11.5641 3.98772 9.78249 5.74587C8.00089 7.50403 7 9.8886 7 12.375C7 19.1156 16.5 28 16.5 28ZM16.5 17.0625C15.2402 17.0625 14.032 16.5686 13.1412 15.6896C12.2504 14.8105 11.75 13.6182 11.75 12.375C11.75 11.1318 12.2504 9.93951 13.1412 9.06044C14.032 8.18136 15.2402 7.6875 16.5 7.6875C17.7598 7.6875 18.968 8.18136 19.8588 9.06044C20.7496 9.93951 21.25 11.1318 21.25 12.375C21.25 13.6182 20.7496 14.8105 19.8588 15.6896C18.968 16.5686 17.7598 17.0625 16.5 17.0625Z" fill="#ABB2BF" />
    </g>
    <g id='tg'>
        <path d="M27 15.5C27 18.55 25.7884 21.4751 23.6317 23.6317C21.4751 25.7884 18.55 27 15.5 27C12.45 27 9.52494 25.7884 7.36827 23.6317C5.2116 21.4751 4 18.55 4 15.5C4 12.45 5.2116 9.52494 7.36827 7.36827C9.52494 5.2116 12.45 4 15.5 4C18.55 4 21.4751 5.2116 23.6317 7.36827C25.7884 9.52494 27 12.45 27 15.5ZM15.9126 12.4899C14.7942 12.9556 12.5574 13.9187 9.20519 15.3792C8.66181 15.5949 8.37575 15.8076 8.34987 16.0146C8.30675 16.3639 8.74519 16.5019 9.34175 16.6903L9.59331 16.7693C10.1798 16.9605 10.9704 17.1833 11.3801 17.1919C11.7539 17.2006 12.1693 17.0482 12.6279 16.7319C15.7602 14.6174 17.3774 13.5493 17.478 13.5263C17.5499 13.5091 17.6505 13.4889 17.7166 13.5493C17.7842 13.6083 17.777 13.7218 17.7698 13.752C17.7267 13.9374 16.006 15.5359 15.1162 16.3639C14.8387 16.6227 14.6418 16.8053 14.6016 16.8469C14.5129 16.9375 14.4228 17.0267 14.3313 17.1143C13.7851 17.6404 13.3768 18.0343 14.3529 18.6783C14.8229 18.9888 15.1996 19.2432 15.5747 19.4991C15.983 19.778 16.3912 20.0554 16.9202 20.4033C17.0539 20.4896 17.1833 20.583 17.3084 20.6721C17.7842 21.0114 18.214 21.3161 18.7416 21.2673C19.0492 21.2385 19.3669 20.951 19.5279 20.0885C19.9088 18.0516 20.6578 13.6399 20.8302 11.8214C20.8408 11.6703 20.8345 11.5184 20.8116 11.3686C20.798 11.2478 20.7395 11.1364 20.6477 11.0567C20.5169 10.9664 20.361 10.9196 20.2021 10.923C19.7708 10.9302 19.1052 11.1616 15.9126 12.4899Z" fill="#ABB2BF" />
    </g>
    <g id='email'>
        <path d="M5.07187 9.20292C5.2168 8.57709 5.57307 8.01832 6.08232 7.6181C6.59158 7.21789 7.22365 6.99996 7.875 7H25.125C25.7764 6.99996 26.4084 7.21789 26.9177 7.6181C27.4269 8.01832 27.7832 8.57709 27.9281 9.20292L16.5 16.0865L5.07187 9.20292ZM5 10.8207V20.8847L13.3418 15.8442L5 10.8207ZM14.7189 16.6758L5.27456 22.3807C5.50791 22.8657 5.87619 23.2753 6.33656 23.5619C6.79693 23.8486 7.33044 24.0005 7.875 24H25.125C25.6695 24.0001 26.2028 23.8479 26.6629 23.561C27.123 23.274 27.491 22.8643 27.724 22.3793L18.2796 16.6744L16.5 17.7468L14.7189 16.6744V16.6758ZM19.6582 15.8457L28 20.8847V10.8207L19.6582 15.8442V15.8457Z" fill="#ABB2BF" />
    </g>
    <g id='vk'>
        <path d="M25.217 22.402h-2.179c-0.825 0-1.080-0.656-2.562-2.158-1.291-1.25-1.862-1.418-2.179-1.418-0.445 0-0.572 0.127-0.572 0.741v1.968c0 0.53-0.169 0.847-1.566 0.847-2.818-0.189-5.24-1.726-6.646-3.966l-0.021-0.035c-1.632-2.027-2.835-4.47-3.43-7.142l-0.022-0.117c0-0.317 0.127-0.614 0.741-0.614h2.179c0.55 0 0.762 0.254 0.975 0.846 1.078 3.112 2.878 5.842 3.619 5.842 0.275 0 0.402-0.127 0.402-0.825v-3.219c-0.085-1.482-0.868-1.608-0.868-2.137 0.009-0.283 0.241-0.509 0.525-0.509 0.009 0 0.017 0 0.026 0.001l-0.001-0h3.429c0.466 0 0.635 0.254 0.635 0.804v4.34c0 0.465 0.212 0.635 0.339 0.635 0.275 0 0.509-0.17 1.016-0.677 1.054-1.287 1.955-2.759 2.642-4.346l0.046-0.12c0.145-0.363 0.493-0.615 0.9-0.615 0.019 0 0.037 0.001 0.056 0.002l-0.003-0h2.179c0.656 0 0.805 0.337 0.656 0.804-0.874 1.925-1.856 3.579-2.994 5.111l0.052-0.074c-0.232 0.381-0.317 0.55 0 0.975 0.232 0.317 0.995 0.973 1.503 1.566 0.735 0.727 1.351 1.573 1.816 2.507l0.025 0.055c0.212 0.612-0.106 0.93-0.72 0.93zM20.604 1.004h-9.207c-8.403 0-10.392 1.989-10.392 10.392v9.207c0 8.403 1.989 10.392 10.392 10.392h9.207c8.403 0 10.392-1.989 10.392-10.392v-9.207c0-8.403-2.011-10.392-10.392-10.392z" fill="#ABB2BF"/>
    </g>
    <g id='git'>
        <path d="M15.5 6C9.69875 6 5 10.5882 5 16.2529C5 20.7899 8.00562 24.6219 12.1794 25.9804C12.7044 26.0701 12.9012 25.7625 12.9012 25.4934C12.9012 25.2499 12.8881 24.4425 12.8881 23.5838C10.25 24.058 9.5675 22.9558 9.3575 22.3791C9.23938 22.0843 8.7275 21.1743 8.28125 20.9308C7.91375 20.7386 7.38875 20.2644 8.26813 20.2516C9.095 20.2388 9.68563 20.9949 9.8825 21.3025C10.8275 22.8533 12.3369 22.4175 12.9406 22.1484C13.0325 21.4819 13.3081 21.0334 13.61 20.777C11.2737 20.5207 8.8325 19.6364 8.8325 15.7147C8.8325 14.5997 9.23938 13.6769 9.90875 12.9592C9.80375 12.7029 9.43625 11.6519 10.0138 10.2422C10.0138 10.2422 10.8931 9.97301 12.9012 11.2931C13.7413 11.0624 14.6338 10.947 15.5263 10.947C16.4188 10.947 17.3113 11.0624 18.1513 11.2931C20.1594 9.9602 21.0387 10.2422 21.0387 10.2422C21.6163 11.6519 21.2488 12.7029 21.1438 12.9592C21.8131 13.6769 22.22 14.5868 22.22 15.7147C22.22 19.6492 19.7656 20.5207 17.4294 20.777C17.81 21.0975 18.1381 21.7126 18.1381 22.6738C18.1381 24.0452 18.125 25.1474 18.125 25.4934C18.125 25.7625 18.3219 26.0829 18.8469 25.9804C20.9314 25.2935 22.7428 23.9854 24.026 22.2403C25.3092 20.4953 25.9996 18.4012 26 16.2529C26 10.5882 21.3013 6 15.5 6Z" fill="#ABB2BF" />
    </g>

</svg>